<svg xmlns="http://www.w3.org/2000/svg" width="128" height="128" fill="none" viewBox="0 0 128 128"><g clip-path="url(#clip0_103_2)"><path fill="url(#paint0_linear_103_2)" d="M63.9202 127.84C99.2223 127.84 127.84 99.2223 127.84 63.9202C127.84 28.6181 99.2223 0 63.9202 0C28.6181 0 0 28.6181 0 63.9202C0 99.2223 28.6181 127.84 63.9202 127.84Z"/><path fill="url(#paint1_linear_103_2)" d="M70.7175 48.0096L56.3133 50.676C56.0766 50.7199 55.9013 50.9094 55.887 51.1369L55.001 65.2742C54.9801 65.6072 55.3038 65.8656 55.6478 65.7907L59.6582 64.9163C60.0334 64.8346 60.3724 65.1468 60.2953 65.5033L59.1038 71.0151C59.0237 71.386 59.3923 71.7032 59.7758 71.5932L62.2528 70.8822C62.6368 70.7721 63.0057 71.0902 62.9245 71.4615L61.031 80.1193C60.9126 80.6608 61.6751 80.9561 61.9931 80.4918L62.2055 80.1817L73.9428 58.053C74.1393 57.6825 73.8004 57.26 73.3696 57.3385L69.2417 58.0912C68.8538 58.1618 68.5237 57.8206 68.6332 57.462L71.3274 48.6385C71.437 48.2794 71.1058 47.9378 70.7175 48.0096Z"/></g><defs><linearGradient id="paint0_linear_103_2" x1="1.438" x2="56.33" y1="7.91" y2="82.457" gradientUnits="userSpaceOnUse"><stop stop-color="#41D1FF"/><stop offset="1" stop-color="#BD34FE"/></linearGradient><linearGradient id="paint1_linear_103_2" x1="60.317" x2="64.237" y1="48.734" y2="77.196" gradientUnits="userSpaceOnUse"><stop stop-color="#FFEA83"/><stop offset=".083" stop-color="#FFDD35"/><stop offset="1" stop-color="#FFA800"/></linearGradient><clipPath id="clip0_103_2"><rect width="128" height="128" fill="#fff"/></clipPath></defs></svg>